<svg xmlns="http://www.w3.org/2000/svg" width="500" height="500" viewBox="0 0 500 500"><path d="M250.001 0C111.927 0 0 111.927 0 250.001 0 388.077 111.927 500 250.001 500 388.073 500 500 388.077 500 250.001 500 111.927 388.073 0 250.001 0zm0 458.943c-115.212 0-208.941-93.733-208.941-208.942 0-115.208 93.729-208.941 208.941-208.941 115.208 0 208.938 93.733 208.938 208.941 0 115.209-93.729 208.942-208.938 208.942z"/><path d="M404.462 201.172c-.028-.195-.076-.382-.109-.577a13.101 13.101 0 0 0-.232-1.114c-.057-.22-.138-.431-.206-.642a13.714 13.714 0 0 0-.342-.968c-.091-.22-.196-.439-.297-.651-.14-.3-.285-.593-.452-.877-.122-.212-.251-.416-.377-.618-.18-.277-.362-.546-.562-.806-.146-.194-.3-.39-.454-.577a13.147 13.147 0 0 0-.664-.716c-.174-.178-.346-.357-.528-.521a15.537 15.537 0 0 0-.752-.633c-.198-.155-.395-.31-.602-.456-.078-.049-.146-.114-.22-.163L257.369 97.656a13.28 13.28 0 0 0-14.738 0l-141.295 94.196c-.073.049-.142.114-.219.163-.208.146-.403.301-.598.456-.26.203-.512.415-.752.633-.187.164-.357.342-.533.521a11.617 11.617 0 0 0-1.117 1.293c-.195.26-.383.529-.557.806-.134.203-.26.406-.382.618-.163.284-.309.577-.451.877a10.97 10.97 0 0 0-.297.651c-.13.317-.236.642-.341.968-.07.211-.146.422-.208.642-.097.366-.162.74-.231 1.114-.032.195-.081.382-.106.577a12.897 12.897 0 0 0-.122 1.732V297.1c0 .585.044 1.162.122 1.74.025.188.074.382.106.568.069.374.134.748.231 1.114.062.22.138.432.208.643.105.324.211.65.341.975.089.222.195.433.297.645.143.3.289.592.451.885.122.204.248.406.382.61.174.276.362.545.557.806.146.203.301.391.459.577.208.243.427.488.658.716.175.178.346.357.533.52.24.221.492.432.752.635.195.155.391.31.598.454.077.05.146.115.219.163l141.295 94.197a13.286 13.286 0 0 0 7.371 2.236c2.566 0 5.135-.749 7.368-2.236l141.295-94.197c.074-.048.142-.113.22-.163.207-.145.403-.299.602-.454.256-.203.508-.414.752-.635.183-.162.354-.342.528-.52.232-.228.452-.473.664-.716.154-.187.308-.374.454-.577.2-.261.383-.529.562-.806.126-.204.255-.406.377-.61.167-.293.312-.585.452-.885.101-.212.206-.423.297-.645.13-.324.235-.65.342-.975.068-.211.149-.423.206-.643.098-.366.167-.74.232-1.114.033-.187.081-.381.109-.568.073-.578.119-1.155.119-1.74v-94.197c0-.585-.046-1.162-.119-1.731zm-141.176-67.639l104.088 69.387-46.493 31.103-57.595-38.527v-61.963zm-26.571 0v61.963l-57.592 38.527-46.497-31.103 104.089-69.387zM121.99 227.771l33.238 22.231-33.238 22.233v-44.464zm114.725 138.7l-104.088-69.388 46.497-31.094 57.592 38.52v61.962zm13.286-85.04l-46.988-31.429 46.988-31.428 46.985 31.428-46.985 31.429zm13.285 85.04v-61.962l57.595-38.52 46.493 31.094-104.088 69.388zm114.724-94.237l-33.233-22.233 33.233-22.231v44.464z"/></svg>