<svg xmlns="http://www.w3.org/2000/svg" width="300" height="300" viewBox="0 0 300 300"><circle fill="#F74646" cx="150" cy="150" r="150"/><path fill="#FFF" d="M160.007 73.302c.546-.649.815-1.203 1.086-1.758 1.26-2.586.321-4.415-2.635-5.855l-.555-.27c-13.573-5.926-30.377-13.196-44.604-20.126-4.065-1.98-6.036-5.913-4.241-10.067l.18-.369c2.25-4.619 6.466-5.766 10.436-4.062 16.349 7.735 34.081 15.916 50.152 23.286l1.479.721c4.804 2.34 7.873 5.892 9.205 10.198.952 3.208.712 6.519-1.269 10.584-.99 2.032-2.53 4.254-4.345 6.571-7.622 9.546-17.798 21.049-28.432 32.558 13.787 8.772 27.625 22.601 38.618 36.642 6.784-10.641 13.728-23.489 21.107-38.64 2.341-4.804 6.742-5.861 10.807-3.881 4.434 2.159 6.591 6.182 4.341 10.801l-2.16 4.435c-7.92 16.26-15.955 30.406-23.651 41.517 6.912 10.682 12.445 21.378 16.702 32.824 1.41 3.202 1.169 6.514-.001 8.916-.989 2.032-2.443 3.61-4.367 4.273-2.469 1.312-4.951 1.246-6.983.256s-3.52-2.629-4.373-5.102c-3.222-9.342-7.173-18.125-12.599-27.169-19.887 23.461-43.401 33.725-72.926 31.917-1.749-.166-3.222-.427-4.515-1.057-2.772-1.35-4.36-3.724-4.208-6.85-.015-1.379.341-2.578.881-3.687 1.53-3.141 4.637-4.827 8.039-4.771 25.478 1.666 45.606-7.275 63.666-29.799-9.529-14.699-24.482-29.527-39.381-39.299-12.919 12.91-26.306 24.906-37.894 33.207-18.063 13.147-30.186 14.101-41.087 8.791-11.824-5.76-18.89-22.231-8.72-43.11 13.95-28.639 45.662-37.424 84.648-18.434 10.546-11.322 19.897-22.541 27.599-33.191zM62.714 130.84c-5.67 11.641-3.202 19.244 2.341 21.943 5.358 2.61 12.517 1.525 25.743-8.264 9.668-7.178 20.327-16.388 30.332-26.603-26.79-13.049-49.056-6.292-58.416 12.924z"/></svg>