<svg width="465" height="436" viewBox="0 0 465 436" xmlns="http://www.w3.org/2000/svg"><title>icons</title><g transform="translate(-1)" fill="none" fill-rule="evenodd"><g transform="translate(1)"><circle fill="#FF1F1F" cx="61" cy="61" r="61"/><path d="M41.062 37.008A5.002 5.002 0 0 1 46.057 32h55.037a4.996 4.996 0 0 1 4.994 5.008v2.984A5.002 5.002 0 0 1 101.094 45H46.057a4.996 4.996 0 0 1-4.995-5.008v-2.984zm-.062 21A5.002 5.002 0 0 1 45.995 53h55.036a4.996 4.996 0 0 1 4.995 5.008v2.984A5.002 5.002 0 0 1 101.03 66H45.995A4.996 4.996 0 0 1 41 60.992v-2.984zm.062 22A5.002 5.002 0 0 1 46.057 75h55.037a4.996 4.996 0 0 1 4.994 5.008v2.984A5.002 5.002 0 0 1 101.094 88H46.057a4.996 4.996 0 0 1-4.995-5.008v-2.984zM17.016 37.008A5.004 5.004 0 0 1 22.02 32h6.976A5.001 5.001 0 0 1 34 37.008v2.984A5.004 5.004 0 0 1 28.996 45H22.02a5.001 5.001 0 0 1-5.004-5.008v-2.984zm-.016 21A5.004 5.004 0 0 1 22.004 53h6.976a5.001 5.001 0 0 1 5.004 5.008v2.984A5.004 5.004 0 0 1 28.98 66h-6.976A5.001 5.001 0 0 1 17 60.992v-2.984zm.016 22A5.004 5.004 0 0 1 22.02 75h6.976A5.001 5.001 0 0 1 34 80.008v2.984A5.004 5.004 0 0 1 28.996 88H22.02a5.001 5.001 0 0 1-5.004-5.008v-2.984z" fill="#FFF"/></g><g transform="rotate(90 -14 137)"><circle fill="#FF1F1F" cx="61" cy="61" r="61"/><path d="M61.5 19L96 90S73.446 75.862 61.815 75.862C50.446 75.862 27 90 27 90l34.5-71z" fill="#FFF"/></g><circle cx="61" cy="61" r="61" transform="rotate(90 -95.5 218.5)" fill="#FF1F1F"/><g transform="rotate(-90 222.5 50.5)"><circle fill="#FF1F1F" transform="matrix(-1 0 0 1 122 0)" cx="61" cy="62" r="61"/><path d="M61.5 24L96 95S73.446 80.862 61.815 80.862C50.446 80.862 27 95 27 95l34.5-71z" fill="#FFF"/></g><circle transform="matrix(0 1 1 0 173 314)" cx="61" cy="61" r="61" fill="#FF1F1F"/><circle transform="matrix(0 1 1 0 344 151)" cx="61" cy="61" r="61" fill="#FF1F1F"/><text transform="rotate(-21 640.862 -764.831)" font-family="Hiragino Maru Gothic Pro" font-size="72" fill="#FFF"><tspan x="26" y="94">わ</tspan></text><circle transform="matrix(0 1 1 0 344 314)" cx="61" cy="61" r="61" fill="#FF1F1F"/><g transform="translate(173)"><ellipse cx="61" cy="60.5" rx="61" ry="60.5" transform="translate(0 .9)" fill="#FF1F1F"/><rect fill="#FFF" x="47.278" y="33.287" width="27.445" height="41.782" rx="5"/><path d="M21.447 70.418h79.106L61 102.513 21.447 70.418z" fill="#FFF"/></g><ellipse cx="61" cy="60.5" rx="61" ry="60.5" transform="translate(344 .9)" fill="#FF1F1F"/><text transform="rotate(21 235 1017.029)" font-family="Hiragino Maru Gothic Pro" font-size="72" fill="#FFF"><tspan x="27" y="98">み</tspan></text><g transform="translate(37 333)"><rect width="50" height="84" rx="5" fill="#FFF"/><rect fill="#4A4A4A" x="20" y="4" width="10" height="1" rx="1"/><path fill="#4A4A4A" d="M2 10h46v64H2z"/><circle stroke="#4A4A4A" cx="25" cy="79" r="4"/></g><rect width="63" height="84" rx="5" transform="translate(203 332)" fill="#FFF"/><rect fill="#4A4A4A" x="228.2" y="336" width="12.6" height="1" rx="1"/><path fill="#4A4A4A" d="M205.52 342h57.96v64h-57.96z"/><circle stroke="#4A4A4A" cx="235" cy="411" r="4"/><g transform="translate(364 345)"><path fill="#FFF" d="M34.543 36.73h8.914v26.713h-8.914z"/><rect fill="#FFF" width="78" height="52.313" rx="2.803"/><rect fill="#4A4A4A" x="2.786" y="2.783" width="72.429" height="43.409" rx="2.803"/><rect fill="#FFF" x="21.171" y="58.991" width="35.657" height="5.009" rx="2.803"/><ellipse stroke="#4A4A4A" stroke-width=".561" cx="39" cy="49.53" rx="2.229" ry="2.226"/></g></g></svg>